:SAMPLES-PER-SECOND 30
:FULLY-SPECIFIED
:DEGREES
272
root  -3.23118 40.9885 -0.411237 0.721344 -80.0457 1.23006
RightUpLeg  2.25158 -1.76103 -0.813404
RightLeg  -5.39102 -29.1515 3.65963
RightFoot  1.49714 -0.119396 1.14803
RightToes  -3.1126e-008 1.75238e-005 3.56266e-009
Spine  5.78896 1.45187 -0.331806
Spine1  -9.9424 1.294 1.68143
HEad  6.23912 -8.03622 0.419314
LeftShoulder1  0.452418 1.56149 -16.5414
LeftArm  -34.6626 -37.4847 -44.6763
LeftForeArm  56.2286 -76.032 -41.9933
LeftHand  -0.564951 -4.33377 7.02833
RightShoulder  1.26648 1.32197 19.9032
RightArm  -11.4906 -17.6982 44.637
RightForeArm  106.617 78.7374 113
RightHand  -0.077304 8.09602 -1.04014
LeftUpLeg  -0.871141 0.654682 3.21415
LeftLeg  -2.68905 8.36889 -0.42099
LeftFoot  2.1884 0.486374 -4.2118
LeftToes  4.78049e-008 1.46235e-008 1.34219e-009
273
root  -3.27407 40.9843 -0.459689 0.516754 -78.5396 1.35818
RightUpLeg  2.61467 -1.89884 -0.790977
RightLeg  -5.60544 -30.5104 3.94139
RightFoot  1.32343 -0.114794 1.09922
RightToes  -3.1126e-008 1.75238e-005 3.56266e-009
Spine  5.79551 1.33397 -0.491125
Spine1  -9.8892 1.17178 1.75209
HEad  6.07592 -6.78572 0.391626
LeftShoulder1  0.46467 1.52382 -16.734
LeftArm  -34.4916 -37.5292 -44.9369
LeftForeArm  56.5723 -76.0747 -42.0961
LeftHand  -0.591869 -4.26547 7.39588
RightShoulder  1.25209 1.26851 19.8961
RightArm  -11.1966 -17.5796 44.6369
RightForeArm  105.69 78.7979 112.174
RightHand  -0.0296015 8.04691 -0.63222
LeftUpLeg  -1.01576 0.615492 3.21809
LeftLeg  -2.6065 6.92646 -0.353334
LeftFoot  2.25396 0.503103 -4.33628
LeftToes  4.78049e-008 1.46235e-008 1.34219e-009
274
root  -3.3306 40.977 -0.509901 0.221191 -77.1079 1.51897
RightUpLeg  3.05798 -1.9878 -0.738572
RightLeg  -5.85091 -31.8272 4.17464
RightFoot  1.14758 -0.11341 1.09169
RightToes  -3.1126e-008 1.75238e-005 3.56266e-009
Spine  6.09905 1.1134 -0.511764
Spine1  -10.2614 0.982736 1.48906
HEad  5.88193 -6.18592 0.835151
LeftShoulder1  0.462167 1.51657 -16.5046
LeftArm  -33.8384 -37.3111 -44.7484
LeftForeArm  56.0216 -75.9394 -41.5904
LeftHand  -0.665316 -4.61226 7.98857
RightShoulder  1.29574 1.36887 20.2787
RightArm  -10.8461 -18.1201 44.2862
RightForeArm  106.217 78.6935 113.185
RightHand  -0.0834453 8.01065 -1.09657
LeftUpLeg  -0.923467 0.569521 3.19331
LeftLeg  -2.80246 5.53951 -0.305278
LeftFoot  2.49625 0.480789 -4.08622
LeftToes  4.78049e-008 1.46235e-008 1.34219e-009
275
root  -3.36894 40.9708 -0.546704 -0.291809 -75.8863 2.01578
RightUpLeg  3.20858 -2.09707 -0.781931
RightLeg  -5.80081 -32.9821 4.22124
RightFoot  0.88622 -0.113503 1.09982
RightToes  -3.1126e-008 1.75238e-005 3.56266e-009
Spine  6.05731 1.02065 -1.27885
Spine1  -10.2876 0.816078 2.25239
HEad  5.73128 -5.86799 0.513644
LeftShoulder1  0.4931 1.40327 -16.738
LeftArm  -33.6518 -37.3083 -45.1814
LeftForeArm  56.7453 -76.0718 -42.0186
LeftHand  -0.802181 -5.26664 9.04479
RightShoulder  1.31689 1.46537 20.1747
RightArm  -10.8961 -18.4889 44.1489
RightForeArm  106.193 78.7545 112.709
RightHand  -0.0930085 8.08051 -1.17642
LeftUpLeg  -1.06408 0.420052 3.06518
LeftLeg  -2.74804 4.50045 -0.210416
LeftFoot  2.51821 0.514841 -4.36134
LeftToes  4.78049e-008 1.46235e-008 1.34219e-009
276
root  -3.41164 40.9701 -0.58114 -0.340637 -75.1236 1.98003
RightUpLeg  3.38612 -2.12241 -0.711967
RightLeg  -5.71804 -33.6425 4.2177
RightFoot  0.793758 -0.116501 1.14719
RightToes  -3.1126e-008 1.75238e-005 3.56266e-009
Spine  5.97409 0.986674 -1.79811
Spine1  -10.1542 0.719222 2.90765
HEad  5.65013 -5.43799 0.274067
LeftShoulder1  0.5534 1.17291 -17.0352
LeftArm  -33.595 -37.0734 -45.0496
LeftForeArm  56.8943 -76.1096 -42.1643
LeftHand  -0.745441 -5.40641 8.31402
RightShoulder  1.2489 1.25767 19.89
RightArm  -10.9873 -18.57 44.3815
RightForeArm  105.916 78.795 112.285
RightHand  -0.0211208 8.0928 -0.558736
LeftUpLeg  -1.0309 0.462072 3.11864
LeftLeg  -2.76182 3.69788 -0.214434
LeftFoot  2.57662 0.517595 -4.36827
LeftToes  4.78049e-008 1.46235e-008 1.34219e-009
277
root  -3.45387 40.9686 -0.605306 -0.24704 -74.512 1.84157
RightUpLeg  3.56027 -2.23571 -0.689478
RightLeg  -5.76502 -34.1396 4.39708
RightFoot  0.669187 -0.120135 1.19999
RightToes  -3.1126e-008 1.75238e-005 3.56266e-009
Spine  5.64771 0.8797 -1.91755
Spine1  -9.71704 0.606094 2.94354
HEad  5.50018 -5.52912 0.156716
LeftShoulder1  0.583631 1.0478 -17.0641
LeftArm  -33.5916 -37.2455 -45.0326
LeftForeArm  56.3334 -75.9799 -41.6906
LeftHand  -0.70396 -5.16057 8.04315
RightShoulder  1.27716 1.34777 19.991
RightArm  -11.1054 -18.6995 44.2451
RightForeArm  106.005 78.7502 112.67
RightHand  -0.0098921 8.02534 -0.461056
LeftUpLeg  -1.04212 0.476801 3.17122
LeftLeg  -2.72547 3.05062 -0.168851
LeftFoot  2.59522 0.518008 -4.36665
LeftToes  4.78049e-008 1.46235e-008 1.34219e-009
278
root  -3.48464 40.9646 -0.616335 -0.392868 -74.3766 2.01273
RightUpLeg  3.56062 -2.27093 -0.71125
RightLeg  -5.67155 -34.2402 4.35048
RightFoot  0.580173 -0.121529 1.21501
RightToes  -3.1126e-008 1.75238e-005 3.56266e-009
Spine  5.38174 0.928665 -1.71229
Spine1  -9.45536 0.704316 2.45805
HEad  5.37271 -5.13469 -0.0689565
LeftShoulder1  0.61616 0.888371 -16.8369
LeftArm  -33.6156 -37.3575 -45.211
LeftForeArm  55.934 -75.8676 -41.2628
LeftHand  -0.76435 -5.11581 8.74492
RightShoulder  1.25308 1.23621 20.1124
RightArm  -11.0524 -18.7395 44.2288
RightForeArm  106.13 78.7267 112.898
RightHand  -0.0919405 8.00754 -1.17088
LeftUpLeg  -1.00083 0.439999 3.14151
LeftLeg  -2.79829 2.96361 -0.164836
LeftFoot  2.616 0.510186 -4.29755
LeftToes  4.78049e-008 1.46235e-008 1.34219e-009
279
root  -3.50695 40.9615 -0.625498 -0.44545 -74.4355 2.0459
RightUpLeg  3.55881 -2.31072 -0.714991
RightLeg  -5.5229 -34.1292 4.29352
RightFoot  0.462872 -0.122794 1.22641
RightToes  -3.1126e-008 1.75238e-005 3.56266e-009
Spine  5.59698 0.903186 -1.75425
Spine1  -9.86903 0.678918 2.50954
HEad  5.51315 -4.54224 -0.419338
LeftShoulder1  0.616206 0.915817 -17.1109
LeftArm  -33.6533 -37.0034 -44.7713
LeftForeArm  56.3217 -75.9967 -41.7784
LeftHand  -0.627692 -4.73417 7.45185
RightShoulder  1.29291 1.37681 20.1689
RightArm  -10.8659 -18.9362 43.9584
RightForeArm  106.172 78.6996 113.121
RightHand  -0.0880854 7.99698 -1.13609
LeftUpLeg  -0.958318 0.432656 3.12431
LeftLeg  -2.76899 3.05462 -0.141379
LeftFoot  2.64008 0.478018 -4.02967
LeftToes  4.78049e-008 1.46235e-008 1.34219e-009
280
root  -3.51842 40.9579 -0.637863 -0.258453 -74.4399 1.83478
RightUpLeg  3.63396 -2.24501 -0.623885
RightLeg  -5.64462 -34.2226 4.358
RightFoot  0.48457 -0.12749 1.29086
RightToes  -3.1126e-008 1.75238e-005 3.56266e-009
Spine  5.57052 0.833743 -1.78573
Spine1  -9.82354 0.607862 2.51948
HEad  5.32512 -5.24947 -0.30153
LeftShoulder1  0.596794 0.990576 -17.0411
LeftArm  -33.7103 -37.0729 -44.8823
LeftForeArm  56.1161 -75.9793 -41.7611
LeftHand  -0.50909 -4.18892 6.38769
RightShoulder  1.28139 1.34698 20.0889
RightArm  -10.9132 -18.8101 43.9195
RightForeArm  105.821 78.749 112.608
RightHand  -0.0114102 8.0588 -0.473712
LeftUpLeg  -1.04901 0.510558 3.21735
LeftLeg  -2.51835 2.93455 -0.127017
LeftFoot  2.52125 0.471753 -4.00074
LeftToes  4.78049e-008 1.46235e-008 1.34219e-009
281
root  -3.52794 40.9571 -0.647645 -0.286057 -74.5511 1.86005
RightUpLeg  3.65479 -2.22452 -0.60826
RightLeg  -5.68488 -34.146 4.36974
RightFoot  0.4735 -0.12615 1.26285
RightToes  -3.1126e-008 1.75238e-005 3.56266e-009
Spine  5.58634 0.795183 -2.11196
Spine1  -9.90159 0.53458 2.88282
HEad  5.10912 -5.20212 -0.332696
LeftShoulder1  0.577729 1.07133 -17.0446
LeftArm  -33.5239 -37.0295 -45.0903
LeftForeArm  56.2569 -75.9705 -41.6681
LeftHand  -0.783001 -5.0657 9.01371
RightShoulder  1.28212 1.36742 19.9839
RightArm  -10.7319 -18.8131 43.8282
RightForeArm  105.578 78.7403 112.583
RightHand  -0.107509 8.08024 -1.30209
LeftUpLeg  -1.0018 0.530738 3.23513
LeftLeg  -2.54865 3.00086 -0.131333
LeftFoot  2.50708 0.469723 -3.97838
LeftToes  4.78049e-008 1.46235e-008 1.34219e-009
282
root  -3.52666 40.9576 -0.660126 -0.21376 -74.7164 1.78539
RightUpLeg  3.64126 -2.17123 -0.553389
RightLeg  -5.71149 -34.036 4.36333
RightFoot  0.480133 -0.121569 1.18716
RightToes  -3.1126e-008 1.75238e-005 3.56266e-009
Spine  5.73137 0.782594 -2.30565
Spine1  -10.1338 0.508276 3.0372
HEad  4.91675 -5.41388 -0.172525
LeftShoulder1  0.572537 1.09326 -17.0442
LeftArm  -33.0155 -37.0069 -45.1307
LeftForeArm  56.0638 -75.8752 -41.2561
LeftHand  -0.722499 -4.89806 8.44254
RightShoulder  1.31608 1.47482 20.1054
RightArm  -10.7996 -18.9384 43.5877
RightForeArm  105.778 78.6926 113.026
RightHand  -0.103836 8.06609 -1.27129
LeftUpLeg  -0.973016 0.60087 3.30714
LeftLeg  -2.57269 3.08771 -0.169601
LeftFoot  2.49268 0.474816 -4.04649
LeftToes  4.78049e-008 1.46235e-008 1.34219e-009
